<svg width="38" height="38" viewBox="0 0 38 38" fill="none" xmlns="http://www.w3.org/2000/svg">
<path d="M16.6309 0L14.2618 5.6384C13.788 5.78055 13.3616 6.01746 12.9352 6.25436L7.29676 3.88529L3.88529 7.29676L6.25436 12.9352C6.01746 13.409 5.82793 13.788 5.6384 14.2618L0 16.6309V21.3691L5.6384 23.7382C5.82793 24.212 6.01746 24.591 6.25436 25.0648L3.88529 30.7032L7.29676 34.1147L12.9352 31.7456C13.3616 31.9352 13.788 32.1721 14.2618 32.3616L16.6309 38H21.3691L23.7382 32.3616C24.1646 32.1721 24.6384 31.9825 25.0648 31.7456L30.7032 34.1147L34.1147 30.7032L31.7456 25.0648C31.9352 24.6384 32.1721 24.1646 32.3616 23.7382L38 21.3691V16.6309L32.3616 14.2618C32.2195 13.8354 31.9825 13.3616 31.7456 12.9352L34.1147 7.29676L30.7032 3.88529L25.0648 6.25436C24.6384 6.06484 24.1646 5.82793 23.7382 5.6384L21.3691 0L16.6309 0ZM19 11.8454C22.9327 11.8454 26.1072 15.0199 26.1072 18.9526C26.1072 22.8853 22.9327 26.0598 19 26.0598C15.0673 26.0598 11.8928 22.8853 11.8928 18.9526C11.8928 15.0199 15.0673 11.8454 19 11.8454Z" fill="black"/>
</svg>
