<svg width="34" height="38" viewBox="0 0 34 38" fill="none" xmlns="http://www.w3.org/2000/svg">
<path d="M14.5714 0C11.9 0 9.71429 2.1375 9.71429 4.75H4.85714C2.18571 4.75 0 6.8875 0 9.5H34C34 6.8875 31.8143 4.75 29.1429 4.75H24.2857C24.2857 2.1375 22.1 0 19.4286 0H14.5714ZM4.85714 14.25V37.0975C4.85714 37.62 5.24571 38 5.78 38H28.2686C28.8029 38 29.1914 37.62 29.1914 37.0975V14.25H24.3343V30.875C24.3343 32.205 23.2657 33.25 21.9057 33.25C20.5457 33.25 19.4771 32.205 19.4771 30.875V14.25H14.62V30.875C14.62 32.205 13.5514 33.25 12.1914 33.25C10.8314 33.25 9.76286 32.205 9.76286 30.875V14.25H4.90571H4.85714Z" fill="#DAAA63"/>
</svg>
