<svg width="172" height="172" viewBox="0 0 172 172" fill="none" xmlns="http://www.w3.org/2000/svg">
<path d="M74.4002 0.212572C33.3738 0.212572 0 33.5864 0 74.6127C0 115.639 33.3738 149.013 74.4002 149.013C86.9419 149.013 99.2711 146.037 109.687 140.297C110.521 141.302 111.446 142.227 112.451 143.061L133.708 164.318C135.671 166.527 138.064 168.311 140.741 169.561C143.419 170.811 146.323 171.501 149.277 171.588C152.23 171.675 155.17 171.157 157.917 170.067C160.663 168.976 163.157 167.336 165.247 165.247C167.336 163.157 168.976 160.663 170.067 157.917C171.157 155.17 171.675 152.23 171.588 149.277C171.501 146.323 170.811 143.419 169.561 140.741C168.311 138.064 166.527 135.671 164.318 133.708L143.061 112.451C142.025 111.415 140.886 110.489 139.66 109.687C145.399 99.2711 149.013 87.1545 149.013 74.4002C149.013 33.3738 115.639 0 74.6127 0L74.4002 0.212572ZM74.4002 21.4698C103.948 21.4698 127.543 45.0652 127.543 74.6127C127.543 88.6425 122.441 101.609 113.513 111.175C113.301 111.388 113.088 111.6 112.876 111.813C111.872 112.647 110.947 113.572 110.112 114.576C100.759 123.079 88.0048 127.968 74.1876 127.968C44.6401 127.968 21.0446 104.373 21.0446 74.8253C21.0446 45.2778 44.6401 21.6823 74.1876 21.6823L74.4002 21.4698Z" fill="#DAAA63"/>
</svg>
